[img]http://briefcase.pathfinder.gr/download/540731/numberone.gif[/img]
[img]http://briefcase.pathfinder.gr/download/538827/seed.gif[/img]

[img]http://www.33smiley.com/smiley5/work/5.gif[/img]


[img]http://moviecritter.com/static/images/cover/pinata-survival-island.jpg[/img]


Plot:Teens trapped on an island are haunted by a demon hidden inside...a pinata.

[IMG]http://i981.photobucket.com/albums/ae294/fasamoo/SurvivalIsland2002DVDRipGoGo_201-5.jpg[/IMG]
[IMG]http://i981.photobucket.com/albums/ae294/fasamoo/SurvivalIsland2002DVDRipGoGo_201-4.jpg[/IMG]
[IMG]http://i981.photobucket.com/albums/ae294/fasamoo/SurvivalIsland2002DVDRipGoGo_201-3.jpg[/IMG]
[IMG]http://i981.photobucket.com/albums/ae294/fasamoo/SurvivalIsland2002DVDRipGoGo_201-2.jpg[/IMG]
[IMG]http://i981.photobucket.com/albums/ae294/fasamoo/SurvivalIsland2002DVDRipGoGo_201-1.jpg[/IMG]
[IMG]http://i981.photobucket.com/albums/ae294/fasamoo/SurvivalIsland2002DVDRipGoGo_201005.jpg[/IMG]

General
Complete name                    : Survival Island (2002) DVDRip GoGoSurvival Island (2002) DVDRip GoGo.avi
Language                         : English
Subtitles                        : None
IMDB Link                        : http://www.imdb.com/title/tt0201844/
Format                           : AVI
Format/Info                      : Audio Video Interleave
Format profile                   : OpenDML
File size                        : 705 MiB
Duration                         : 1h 24mn
Overall bit rate                 : 1 165 Kbps
Writing application              : AVI-Mux GUI 1.17.8.3

Video
ID                               : 0
Format                           : MPEG-4 Visual
Format profile                   : Advanced Simple@L5
Format settings, BVOP            : Yes
Format settings, QPel            : No
Format settings, GMC             : No warppoints
Format settings, Matrix          : Custom
Codec ID                         : XVID
Codec ID/Hint                    : XviD
Duration                         : 1h 24mn
Bit rate                         : 1 028 Kbps
Width                            : 496 pixels
Height                           : 352 pixels
Display aspect ratio             : 1.409
Frame rate                       : 23.976 fps
Resolution                       : 8 bits
Colorimetry                      : 4:2:0
Scan type                        : Progressive
Bits/(Pixel*Frame)               : 0.246
Stream size                      : 623 MiB (88%)
Writing library                  : XviD 1.2.1 (UTC 2008-12-04)

Audio
ID                               : 1
Format                           : MPEG Audio
Format version                   : Version 1
Format profile                   : Layer 3
Mode                             : Joint stereo
Format_Settings_ModeExtension    : MS Stereo
Codec ID                         : 55
Codec ID/Hint                    : MP3
Duration                         : 1h 24mn
Bit rate mode                    : Constant
Bit rate                         : 128 Kbps
Channel(s)                       : 2 channels
Sampling rate                    : 48.0 KHz
Stream size                      : 77.5 MiB (11%)
Alignment                        : Aligned on interleaves
Interleave, duration             : 24 ms (0.58 video frame)
Interleave, preload duration     : 912 ms
Writing library                  : LAME3.98.2